{
    "asset" : {
        "generator" : "Khronos glTF Blender I/O v3.2.43",
        "version" : "2.0"
    },
    "scene" : 0,
    "scenes" : [
        {
            "name" : "Scene",
            "nodes" : [
                4
            ]
        }
    ],
    "nodes" : [
        {
            "mesh" : 0,
            "name" : "X",
            "translation" : [
                -0.0570756234228611,
                0.0073816776275634766,
                -0.015866441652178764
            ]
        },
        {
            "mesh" : 1,
            "name" : "Y",
            "translation" : [
                -0.05707554891705513,
                0.0073816776275634766,
                -0.015866439789533615
            ]
        },
        {
            "mesh" : 2,
            "name" : "Z",
            "translation" : [
                -0.05707554891705513,
                0.0073816776275634766,
                -0.015866398811340332
            ]
        },
        {
            "mesh" : 3,
            "name" : "z.002_Material_0",
            "translation" : [
                -0.05707554891705513,
                0.0073816776275634766,
                -0.015866439789533615
            ]
        },
        {
            "children" : [
                0,
                1,
                2,
                3
            ],
            "name" : "Test Gizmo",
            "rotation" : [
                0,
                0.0067839231342077255,
                0,
                0.9999769926071167
            ],
            "translation" : [
                0.0006465576589107513,
                0,
                0.0085042929276824
            ]
        }
    ],
    "materials" : [
        {
            "doubleSided" : true,
            "name" : ".001",
            "pbrMetallicRoughness" : {
                "baseColorFactor" : [
                    0.800000011920929,
                    0.0048034898936748505,
                    0,
                    1
                ],
                "metallicFactor" : 0,
                "roughnessFactor" : 0.9612007737159729
            }
        },
        {
            "doubleSided" : true,
            "name" : "material",
            "pbrMetallicRoughness" : {
                "baseColorFactor" : [
                    0.02514740079641342,
                    0,
                    0.800000011920929,
                    1
                ],
                "metallicFactor" : 0,
                "roughnessFactor" : 0.9858890175819397
            }
        },
        {
            "doubleSided" : true,
            "name" : ".002",
            "pbrMetallicRoughness" : {
                "baseColorFactor" : [
                    0,
                    0.800000011920929,
                    0.044000398367643356,
                    1
                ],
                "metallicFactor" : 0,
                "roughnessFactor" : 0.8713507652282715
            }
        },
        {
            "doubleSided" : true,
            "name" : "Material.001",
            "pbrMetallicRoughness" : {
                "baseColorFactor" : [
                    0.800000011920929,
                    0.800000011920929,
                    0.800000011920929,
                    1
                ],
                "metallicFactor" : 0,
                "roughnessFactor" : 0.8040408492088318
            }
        }
    ],
    "meshes" : [
        {
            "name" : "X",
            "primitives" : [
                {
                    "attributes" : {
                        "POSITION" : 0,
                        "NORMAL" : 1,
                        "TEXCOORD_0" : 2,
                        "TEXCOORD_1" : 3
                    },
                    "indices" : 4,
                    "material" : 0
                }
            ]
        },
        {
            "name" : "Y",
            "primitives" : [
                {
                    "attributes" : {
                        "POSITION" : 5,
                        "NORMAL" : 6,
                        "TEXCOORD_0" : 7,
                        "TEXCOORD_1" : 8
                    },
                    "indices" : 9,
                    "material" : 1
                }
            ]
        },
        {
            "name" : "Z",
            "primitives" : [
                {
                    "attributes" : {
                        "POSITION" : 10,
                        "NORMAL" : 11,
                        "TEXCOORD_0" : 12,
                        "TEXCOORD_1" : 13
                    },
                    "indices" : 14,
                    "material" : 2
                }
            ]
        },
        {
            "name" : "z.002_Material_0",
            "primitives" : [
                {
                    "attributes" : {
                        "POSITION" : 15,
                        "NORMAL" : 16,
                        "TEXCOORD_0" : 17,
                        "TEXCOORD_1" : 18
                    },
                    "indices" : 19,
                    "material" : 3
                }
            ]
        }
    ],
    "accessors" : [
        {
            "bufferView" : 0,
            "componentType" : 5126,
            "count" : 320,
            "max" : [
                2.1919407844543457,
                0.1881818175315857,
                0.23762497305870056
            ],
            "min" : [
                0.0034449100494384766,
                -0.2029452621936798,
                -0.1534578502178192
            ],
            "type" : "VEC3"
        },
        {
            "bufferView" : 1,
            "componentType" : 5126,
            "count" : 320,
            "type" : "VEC3"
        },
        {
            "bufferView" : 2,
            "componentType" : 5126,
            "count" : 320,
            "type" : "VEC2"
        },
        {
            "bufferView" : 3,
            "componentType" : 5126,
            "count" : 320,
            "type" : "VEC2"
        },
        {
            "bufferView" : 4,
            "componentType" : 5123,
            "count" : 558,
            "type" : "SCALAR"
        },
        {
            "bufferView" : 5,
            "componentType" : 5126,
            "count" : 320,
            "max" : [
                0.1989322304725647,
                2.2842841148376465,
                0.19957275688648224
            ],
            "min" : [
                -0.19215038418769836,
                0.09670448303222656,
                -0.19151006639003754
            ],
            "type" : "VEC3"
        },
        {
            "bufferView" : 6,
            "componentType" : 5126,
            "count" : 320,
            "type" : "VEC3"
        },
        {
            "bufferView" : 7,
            "componentType" : 5126,
            "count" : 320,
            "type" : "VEC2"
        },
        {
            "bufferView" : 8,
            "componentType" : 5126,
            "count" : 320,
            "type" : "VEC2"
        },
        {
            "bufferView" : 9,
            "componentType" : 5123,
            "count" : 558,
            "type" : "SCALAR"
        },
        {
            "bufferView" : 10,
            "componentType" : 5126,
            "count" : 320,
            "max" : [
                0.22666528820991516,
                0.20879077911376953,
                -0.042975544929504395
            ],
            "min" : [
                -0.16441737115383148,
                -0.1823122501373291,
                -2.231618881225586
            ],
            "type" : "VEC3"
        },
        {
            "bufferView" : 11,
            "componentType" : 5126,
            "count" : 320,
            "type" : "VEC3"
        },
        {
            "bufferView" : 12,
            "componentType" : 5126,
            "count" : 320,
            "type" : "VEC2"
        },
        {
            "bufferView" : 13,
            "componentType" : 5126,
            "count" : 320,
            "type" : "VEC2"
        },
        {
            "bufferView" : 14,
            "componentType" : 5123,
            "count" : 558,
            "type" : "SCALAR"
        },
        {
            "bufferView" : 15,
            "componentType" : 5126,
            "count" : 24,
            "max" : [
                0.19928482174873352,
                0.1625249683856964,
                0.19992534816265106
            ],
            "min" : [
                -0.19250306487083435,
                -0.22350357472896576,
                -0.19186261296272278
            ],
            "type" : "VEC3"
        },
        {
            "bufferView" : 16,
            "componentType" : 5126,
            "count" : 24,
            "type" : "VEC3"
        },
        {
            "bufferView" : 17,
            "componentType" : 5126,
            "count" : 24,
            "type" : "VEC2"
        },
        {
            "bufferView" : 18,
            "componentType" : 5126,
            "count" : 24,
            "type" : "VEC2"
        },
        {
            "bufferView" : 19,
            "componentType" : 5123,
            "count" : 36,
            "type" : "SCALAR"
        }
    ],
    "bufferViews" : [
        {
            "buffer" : 0,
            "byteLength" : 3840,
            "byteOffset" : 0
        },
        {
            "buffer" : 0,
            "byteLength" : 3840,
            "byteOffset" : 3840
        },
        {
            "buffer" : 0,
            "byteLength" : 2560,
            "byteOffset" : 7680
        },
        {
            "buffer" : 0,
            "byteLength" : 2560,
            "byteOffset" : 10240
        },
        {
            "buffer" : 0,
            "byteLength" : 1116,
            "byteOffset" : 12800
        },
        {
            "buffer" : 0,
            "byteLength" : 3840,
            "byteOffset" : 13916
        },
        {
            "buffer" : 0,
            "byteLength" : 3840,
            "byteOffset" : 17756
        },
        {
            "buffer" : 0,
            "byteLength" : 2560,
            "byteOffset" : 21596
        },
        {
            "buffer" : 0,
            "byteLength" : 2560,
            "byteOffset" : 24156
        },
        {
            "buffer" : 0,
            "byteLength" : 1116,
            "byteOffset" : 26716
        },
        {
            "buffer" : 0,
            "byteLength" : 3840,
            "byteOffset" : 27832
        },
        {
            "buffer" : 0,
            "byteLength" : 3840,
            "byteOffset" : 31672
        },
        {
            "buffer" : 0,
            "byteLength" : 2560,
            "byteOffset" : 35512
        },
        {
            "buffer" : 0,
            "byteLength" : 2560,
            "byteOffset" : 38072
        },
        {
            "buffer" : 0,
            "byteLength" : 1116,
            "byteOffset" : 40632
        },
        {
            "buffer" : 0,
            "byteLength" : 288,
            "byteOffset" : 41748
        },
        {
            "buffer" : 0,
            "byteLength" : 288,
            "byteOffset" : 42036
        },
        {
            "buffer" : 0,
            "byteLength" : 192,
            "byteOffset" : 42324
        },
        {
            "buffer" : 0,
            "byteLength" : 192,
            "byteOffset" : 42516
        },
        {
            "buffer" : 0,
            "byteLength" : 72,
            "byteOffset" : 42708
        }
    ],
    "buffers" : [
        {
            "byteLength" : 42780,
            "uri" : "data:application/octet-stream;base64,"
        }
    ]
}
